PathFileType	4	(X/Y/Z)	s01c0101.trc
DataRate	CameraRate	NumFrames	NumMarkers	Units	OrigDataRate	OrigDataStartFrame	OrigNumFrames
200	200	5	47	mm	200	1750	2000
Frame#	Time	racr			lacr			c7			jug			rlel			rdr			llel			ldr			s2			lic			ric			lasi			rasi			rpsi			lpsi			rgt			lgt			rth1			rth2			rth3			rth4			rlfc			rsh1			rsh2			rsh3			rsh4			rlmal			rmmal			rcal			rtoe			rmt5			lth1			lth2			lth4			lth3			llfc			lsh1			lsh2			lsh3			lsh4			llmal			lcal			ltoe			lmt5			SBIKE			LBIKE			RBIKE			
		X1	Y1	Z1	X2	Y2	Z2	X3	Y3	Z3	X4	Y4	Z4	X5	Y5	Z5	X6	Y6	Z6	X7	Y7	Z7	X8	Y8	Z8	X9	Y9	Z9	X10	Y10	Z10	X11	Y11	Z11	X12	Y12	Z12	X13	Y13	Z13	X14	Y14	Z14	X15	Y15	Z15	X16	Y16	Z16	X17	Y17	Z17	X18	Y18	Z18	X19	Y19	Z19	X20	Y20	Z20	X21	Y21	Z21	X22	Y22	Z22	X23	Y23	Z23	X24	Y24	Z24	X25	Y25	Z25	X26	Y26	Z26	X27	Y27	Z27	X28	Y28	Z28	X29	Y29	Z29	X30	Y30	Z30	X31	Y31	Z31	X32	Y32	Z32	X33	Y33	Z33	X34	Y34	Z34	X35	Y35	Z35	X36	Y36	Z36	X37	Y37	Z37	X38	Y38	Z38	X39	Y39	Z39	X40	Y40	Z40	X41	Y41	Z41	X42	Y42	Z42	X43	Y43	Z43	X44	Y44	Z44	X45	Y45	Z45	X46	Y46	Z46	X47	Y47	Z47	
1750	8.7500	467.824142	1326.049306	-132.085536	488.029229	1331.576271	-428.072751	417.677178	1397.318456	-278.992774	432.012491	1236.520708	-285.264930	564.076061	1066.971088	-61.150824	720.544647	849.329501	-95.787878	569.743319	1065.522416	-497.605825	713.658773	850.485543	-436.934038	-88.266097	1133.148791	-266.304641	73.799381	1150.572128	-445.654744	80.586524	1145.519830	-120.712331	78.195330	1098.107209	-423.851202	105.568190	1099.945230	-150.930229	-56.093365	1174.794584	-216.620075	-64.342371	1176.479087	-321.804035	30.854297	1026.520375	-83.606111	21.815499	1019.059069	-471.781780	124.231768	924.237812	-65.893361	188.189994	871.189991	-66.623766	252.940893	808.459494	-77.779449	224.844236	911.201148	-81.099578	305.019987	716.315147	-97.236453	221.990700	635.243016	-65.951656	168.340748	569.601298	-70.313403	104.828530	507.675366	-82.429687	245.617897	529.014754	-122.727765	9.603957	425.919353	-101.610128	53.499145	419.336422	-179.730437	-41.417075	422.064648	-157.166527	179.218844	264.957055	-140.099393	74.830926	295.478944	-71.668425	129.719499	941.961756	-478.908145	216.638322	932.342070	-475.612592	225.571859	987.575062	-472.962261	299.609508	915.189301	-458.483241	395.950300	864.683347	-435.234342	352.286546	756.793430	-461.911372	339.063026	671.857070	-455.623479	323.615348	587.932408	-441.393600	395.140504	665.158763	-430.370273	296.546657	470.636104	-422.924547	246.148956	447.075563	-378.616769	512.188840	366.433025	-380.836932	405.735208	368.694478	-448.425660	-229.474393	890.835543	-253.812887	-21.236927	80.124222	-453.981660	-21.342844	80.190327	-53.998572	
1751	8.7550	467.681361	1325.957092	-131.797543	488.049436	1331.493983	-427.914041	417.721599	1397.308953	-278.870687	431.981199	1236.376469	-285.019483	564.059712	1066.949645	-61.119675	720.479097	849.307263	-95.823543	569.708024	1065.473557	-497.369046	713.658757	850.441268	-436.843339	-88.221022	1133.176462	-266.148810	73.563554	1150.598687	-445.580374	80.744419	1145.507016	-120.578499	78.217200	1097.972189	-423.838929	105.622950	1099.980930	-151.057572	-56.025306	1174.860350	-216.516611	-64.270624	1176.477446	-321.716513	31.156774	1026.844926	-83.476434	21.664889	1018.522088	-471.440963	125.211955	925.323835	-65.630560	189.683486	872.867779	-66.304410	255.028320	810.722497	-77.379007	225.953417	913.189181	-80.766490	307.689032	719.300662	-96.751682	223.950916	639.466470	-65.597667	169.464696	574.349541	-70.005115	105.146087	513.349384	-82.108791	243.492340	534.243587	-121.579212	8.998939	432.014520	-102.195607	52.959565	425.650494	-179.602019	-41.944845	428.464835	-157.122162	178.029629	270.679250	-140.153215	73.737793	301.453213	-71.672319	128.801268	939.764191	-478.940850	215.564323	929.116475	-475.733643	225.236215	983.609468	-472.437234	298.310841	910.717698	-458.381444	394.192853	858.988581	-435.188013	351.336548	750.684248	-462.036977	338.756392	665.678753	-455.620392	323.939325	581.656227	-441.393259	394.946629	659.327807	-430.152728	297.583470	464.285201	-422.925888	247.428370	440.317190	-378.351249	513.184920	360.580783	-381.004593	406.836708	362.592400	-448.345292	-229.491839	890.833536	-253.838815	-21.248867	80.142825	-453.968891	-21.346907	80.176858	-54.001454	
1752	8.7600	467.574475	1325.909512	-131.514479	488.087957	1331.407392	-427.771959	417.809523	1397.293582	-278.749634	431.946709	1236.249212	-284.785940	564.111147	1066.967387	-61.115087	720.464582	849.315175	-95.859343	569.707483	1065.417218	-497.082652	713.660173	850.381871	-436.751096	-88.146850	1133.243089	-266.031222	73.418388	1150.702402	-445.558594	80.890456	1145.505946	-120.455364	78.261940	1097.864515	-423.826480	105.693713	1100.063205	-151.190990	-55.973106	1174.960599	-216.419998	-64.170623	1176.483835	-321.618582	31.460353	1027.180209	-83.347823	21.496832	1017.931638	-471.060294	126.104890	926.425352	-65.442059	191.144553	874.661347	-65.932020	257.495372	813.183876	-76.943865	227.023075	915.331026	-80.459739	310.268372	722.512352	-96.315973	225.873187	643.795928	-65.225223	170.756276	579.348655	-69.655008	105.726956	518.912586	-81.831909	239.748264	540.131943	-119.872790	8.745859	438.375834	-102.137156	52.649311	431.675067	-179.401127	-42.144625	434.890507	-157.074033	177.267424	276.279847	-140.135266	72.966342	307.401069	-71.624418	127.849203	937.581587	-478.966083	214.455220	925.662639	-475.798084	224.461645	979.961583	-472.636997	296.885111	906.163392	-458.319742	392.437936	853.340630	-435.201504	350.383353	744.517692	-462.116114	338.417700	659.440523	-455.674841	324.034071	575.331986	-441.415678	394.476095	653.609185	-429.998659	298.274916	457.994797	-423.002463	247.812367	434.283414	-378.670664	514.231151	354.783384	-380.958502	407.673637	356.573540	-448.288540	-229.493597	890.835954	-253.848081	-21.249030	80.098351	-453.956576	-21.353168	80.192697	-53.995528	
1753	8.7650	467.495172	1325.915242	-131.221751	488.144621	1331.356294	-427.593113	417.927330	1397.313039	-278.624250	431.982543	1236.222772	-284.567035	564.216289	1067.006689	-61.168946	720.425293	849.340801	-95.906987	569.792576	1065.421632	-496.800429	713.684047	850.301781	-436.658994	-88.082942	1133.346297	-265.944776	73.345154	1150.850406	-445.525936	80.997915	1145.543611	-120.341233	78.337246	1097.777507	-423.836722	105.718701	1100.214957	-151.322292	-55.894420	1175.103787	-216.313381	-64.036994	1176.499992	-321.573827	31.693962	1027.587791	-83.202319	21.422657	1017.421030	-470.725437	127.067076	927.633594	-65.183029	192.638289	876.533837	-65.572692	259.649037	815.799773	-76.624632	228.023783	917.636178	-80.135469	313.011381	726.138446	-95.569435	227.948944	648.332169	-64.833173	172.147581	584.379186	-69.233398	106.480288	524.633733	-81.510002	234.223665	546.735423	-117.555446	9.063419	444.764988	-102.094430	52.861690	437.806631	-179.234065	-41.983023	441.342312	-157.031515	176.546695	281.786315	-140.112116	72.458295	313.317880	-71.604163	126.865835	935.409448	-478.981655	213.289085	922.248176	-475.848522	223.974570	976.462522	-472.634470	295.466044	901.635004	-458.300414	390.519905	847.557262	-435.172840	348.754935	737.808332	-461.936966	337.724975	653.354005	-455.858421	323.927928	569.020089	-441.449831	393.809517	647.709395	-429.772996	298.686041	451.517148	-422.954411	248.099844	428.204787	-378.865537	514.751967	349.187059	-381.029726	408.221996	350.631163	-448.267957	-229.501136	890.821769	-253.870724	-21.254426	80.123413	-453.969182	-21.351172	80.183612	-53.990384	
1754	8.7700	467.474440	1325.953042	-130.946101	488.235629	1331.303368	-427.413934	418.058342	1397.359074	-278.502702	432.001541	1236.217006	-284.356772	564.333669	1067.094106	-61.234026	720.410446	849.355963	-95.944243	569.083483	1065.335739	-497.382457	713.752086	850.241405	-436.620249	-88.005521	1133.485754	-265.872365	73.290566	1150.976772	-445.470073	81.053276	1145.615414	-120.231747	78.473702	1097.706848	-423.834667	105.700515	1100.367448	-151.426298	-55.836743	1175.254629	-216.277322	-63.892083	1176.522400	-321.539614	31.917266	1028.036826	-83.075585	21.314349	1016.866008	-470.421874	127.949385	928.933002	-64.886152	194.126679	878.625540	-65.202751	261.841121	818.609231	-76.316749	229.043484	920.153503	-79.776297	315.733702	729.991721	-95.055414	230.054241	653.014354	-64.426813	173.721912	589.475648	-68.843594	107.569276	530.373058	-81.209119	225.158278	554.731236	-114.224293	9.570681	451.000758	-101.995415	53.256512	443.740452	-179.052485	-41.432181	447.818855	-156.983588	176.126992	287.025162	-140.167065	72.201861	319.116066	-71.571032	125.854308	933.243087	-478.985999	212.047036	918.808230	-475.822261	223.492351	972.902997	-472.776237	293.922346	897.056839	-458.224767	388.542582	841.666636	-435.172893	348.004450	732.194516	-462.515712	336.778740	647.181616	-456.034653	323.512563	562.760742	-441.470769	392.879605	641.855294	-429.583483	298.835277	445.282972	-422.972706	248.167222	421.713195	-378.617071	514.952233	343.570801	-380.958182	408.610793	344.738056	-448.349073	-229.500469	890.833328	-253.874873	-21.248034	80.141216	-453.951219	-21.343432	80.181721	-53.990224	
